<?xml version="1.0" standalone="no"?><!DOCTYPE svg PUBLIC "-//W3C//DTD SVG 1.1//EN" "http://www.w3.org/Graphics/SVG/1.1/DTD/svg11.dtd"><svg t="1662445736209" class="icon" viewBox="0 0 1024 1024" version="1.1" xmlns="http://www.w3.org/2000/svg" p-id="3662" xmlns:xlink="http://www.w3.org/1999/xlink" width="200" height="200"><path d="M997.052632 512l-189.305263 0C800.848842 366.753684 684.220632 250.098526 538.947368 243.2L538.947368 53.894737c0-7.437474-6.036211-13.473684-13.473684-13.473684S512 46.457263 512 53.894737l0 189.305263C366.726737 250.098526 250.098526 366.753684 243.2 512L53.894737 512c-7.437474 0-13.473684 6.036211-13.473684 13.473684S46.457263 538.947368 53.894737 538.947368l189.305263 0c6.898526 145.246316 123.526737 261.901474 268.8 268.8L512 997.052632c0 7.437474 6.036211 13.473684 13.473684 13.473684S538.947368 1004.490105 538.947368 997.052632l0-189.305263c145.273263-6.898526 261.901474-123.553684 268.8-268.8L997.052632 538.947368c7.437474 0 13.473684-6.036211 13.473684-13.473684S1004.490105 512 997.052632 512zM780.8 512l-135.410526 0c-6.278737-55.996632-50.445474-100.136421-106.415158-106.415158l0-135.410526C669.345684 276.992 773.955368 381.601684 780.8 512zM512 512l-79.467789 0c5.955368-41.148632 38.319158-73.512421 79.467789-79.467789L512 512zM512 538.947368l0 79.467789c-41.148632-5.955368-73.539368-38.319158-79.467789-79.467789L512 538.947368zM538.947368 538.947368l79.467789 0c-5.955368 41.148632-38.319158 73.512421-79.467789 79.467789L538.947368 538.947368zM538.947368 512l0-79.467789c41.148632 5.955368 73.539368 38.319158 79.467789 79.467789L538.947368 512zM512 270.147368l0 135.410526c-55.969684 6.278737-100.136421 50.445474-106.415158 106.415158l-135.410526 0C276.992 381.601684 381.601684 276.992 512 270.147368zM270.147368 538.947368l135.410526 0c6.278737 55.996632 50.445474 100.136421 106.415158 106.415158l0 135.410526C381.601684 773.955368 276.992 669.345684 270.147368 538.947368zM538.947368 780.8l0-135.410526c55.969684-6.278737 100.136421-50.445474 106.415158-106.415158l135.410526 0C773.955368 669.345684 669.345684 773.955368 538.947368 780.8z" p-id="3663"></path></svg>