<?xml version="1.0" standalone="no"?><!DOCTYPE svg PUBLIC "-//W3C//DTD SVG 1.1//EN" "http://www.w3.org/Graphics/SVG/1.1/DTD/svg11.dtd"><svg t="1662364446721" class="icon" viewBox="0 0 1024 1024" version="1.1" xmlns="http://www.w3.org/2000/svg" p-id="5170" xmlns:xlink="http://www.w3.org/1999/xlink" width="200" height="200"><path d="M195.242667 552.789333l-102.741334-102.741333c-0.341333-0.341333-0.341333-0.853333 0-1.194667L454.485333 86.528c0.341333-0.341333 0.853333-0.341333 1.194667 0l102.741333 102.741333c0.341333 0.341333 0.341333 0.853333 0 1.194667L196.437333 552.789333c-0.341333 0.341333-0.853333 0.341333-1.194666 0z" fill="#FD753B" p-id="5171"></path><path d="M347.989333 503.125333L327.850667 482.986667c-16.896-16.896-13.312-48.128 8.192-69.632l31.573333-31.573334 51.541333-51.541333c21.504-21.504 52.565333-25.258667 69.632-8.192l20.138667 20.138667c16.896 16.896 13.312 48.128-8.192 69.632L417.621333 494.933333c-21.504 21.333333-52.736 25.088-69.632 8.192z" fill="#FD5D4B" p-id="5172"></path><path d="M380.928 738.474667L278.186667 635.733333c-0.341333-0.341333-0.341333-0.853333 0-1.194666l362.154666-362.154667c0.341333-0.341333 0.853333-0.341333 1.194667 0l102.741333 102.741333c0.341333 0.341333 0.341333 0.853333 0 1.194667L382.122667 738.474667c-0.341333 0.341333-0.853333 0.341333-1.194667 0z" fill="#FD753B" p-id="5173"></path><path d="M529.578667 684.714667l-8.021334-8.021334c-21.504-21.504-21.504-56.32 0-77.824l83.114667-83.114666c21.504-21.504 56.32-21.504 77.824 0l8.021333 8.021333c21.504 21.504 21.504 56.32 0 77.824l-83.114666 83.114667c-21.504 21.504-56.32 21.504-77.824 0z" fill="#6BBA2D" p-id="5174"></path><path d="M568.149333 930.304l-102.741333-102.741333c-0.341333-0.341333-0.341333-0.853333 0-1.194667L827.562667 464.213333c0.341333-0.341333 0.853333-0.341333 1.194666 0l102.741334 102.741334c0.341333 0.341333 0.341333 0.853333 0 1.194666L569.514667 930.304c-0.341333 0.341333-1.024 0.341333-1.365334 0z" fill="#FD753B" p-id="5175"></path><path d="M938.666667 548.181333l-91.136-91.136c-10.752-10.752-28.16-10.752-38.912 0L721.92 543.744c-3.242667-11.946667-9.216-23.381333-18.602667-32.938667l-8.021333-8.021333c-9.386667-9.386667-21.162667-15.189333-33.621333-18.261333l89.429333-89.429334c10.752-10.752 10.752-28.16 0-38.912l-91.136-91.136c-10.752-10.752-28.16-10.752-38.912 0l-86.357333 86.357334c-2.56-8.362667-6.997333-16.042667-13.141334-22.186667l-20.138666-20.138667c-6.314667-6.314667-13.994667-10.581333-22.357334-13.141333l86.357334-86.357333c10.752-10.752 10.752-28.16 0-38.912l-91.136-91.136c-10.752-10.752-28.16-10.752-38.912 0l-168.96 168.96L132.778667 114.346667c-7.168-7.168-18.773333-7.168-25.941334 0s-7.168 18.773333 0 25.941333l134.144 134.144L85.333333 429.909333c-10.752 10.752-10.752 28.16 0 38.912l91.136 91.136c5.290667 5.290667 12.458667 8.021333 19.456 8.021334 6.997333 0 14.165333-2.730667 19.456-8.021334l86.357334-86.357333c2.56 8.533333 6.997333 16.042667 13.312 22.357333l20.138666 20.138667c6.144 6.144 13.824 10.410667 22.357334 13.141333l-86.357334 86.357334c-10.752 10.752-10.752 28.16 0 38.912l91.136 91.136c5.290667 5.290667 12.458667 8.021333 19.456 8.021333 6.997333 0 14.165333-2.730667 19.456-8.021333l88.917334-88.917334c3.242667 12.458667 9.557333 23.893333 18.773333 33.109334l8.021333 8.021333c9.216 9.216 20.48 15.36 32.768 18.602667l-91.136 91.136c-10.752 10.752-10.752 28.16 0 38.912l91.136 91.136c5.290667 5.290667 12.458667 8.021333 19.456 8.021333s14.165333-2.730667 19.456-8.021333l157.866667-157.866667 146.261333 146.261333c3.584 3.584 8.192 5.290667 12.970667 5.290667s9.386667-1.706667 12.970667-5.290667c7.168-7.168 7.168-18.773333 0-25.941333l-146.261334-146.261333L938.666667 587.093333c10.752-10.752 10.752-28.16 0-38.912z m-742.741334-20.650666L117.76 449.365333 455.168 111.957333l78.165333 78.165334-337.408 337.408z m144.896-57.685334c-5.632-5.632-5.632-13.653333-5.12-17.92 1.024-8.874667 5.973333-18.261333 13.312-25.6l83.114667-82.944c8.874667-8.874667 19.968-13.482667 29.354667-13.482666 5.632 0 10.752 1.706667 14.336 5.290666l20.138666 20.138667c5.632 5.632 5.632 13.653333 5.12 17.92-1.024 8.874667-5.973333 18.261333-13.312 25.6l-83.114666 83.114667c-7.338667 7.338667-16.725333 12.288-25.6 13.312-4.266667 0.512-12.458667 0.512-17.92-5.12l-20.309334-20.309334z m40.618667 243.2L303.274667 634.88l337.408-337.408 78.165333 78.165333-337.408 337.408z m161.109333-41.301333l-8.021333-8.021333c-6.997333-6.997333-10.752-16.213333-10.752-25.941334s3.754667-18.944 10.752-25.941333l83.114667-83.114667c6.997333-6.997333 16.213333-10.752 25.941333-10.752s18.944 3.754667 25.941333 10.752l8.021334 8.021334c13.653333 13.653333 14.165333 35.328 1.706666 49.664l-86.698666 86.698666c-14.165333 12.288-36.693333 11.776-50.005334-1.365333zM733.184 740.693333l-164.352 164.352-78.165333-78.165333 127.488-127.488c0.682667-0.682667 1.536-1.194667 2.218666-1.706667l83.114667-82.944c0.682667-0.682667 1.194667-1.536 1.706667-2.218666l122.88-122.88 78.165333 78.165333L733.184 740.693333z" fill="#572C00" p-id="5176"></path></svg>